<?xml version="1.0" encoding="UTF-8" standalone="no"?>
<svg
   version="1.0"
   width="1202.1456pt"
   height="405.7576pt"
   viewBox="0 0 1202.1456 405.7576"
   preserveAspectRatio="xMidYMid"
   id="svg11"
   sodipodi:docname="home2.svg"
   inkscape:version="1.3 (0e150ed, 2023-07-21)"
   xmlns:inkscape="http://www.inkscape.org/namespaces/inkscape"
   xmlns:sodipodi="http://sodipodi.sourceforge.net/DTD/sodipodi-0.dtd"
   xmlns="http://www.w3.org/2000/svg"
   xmlns:svg="http://www.w3.org/2000/svg">
  <defs
     id="defs11" />
  <sodipodi:namedview
     id="namedview11"
     pagecolor="#ffffff"
     bordercolor="#000000"
     borderopacity="0.25"
     inkscape:showpageshadow="2"
     inkscape:pageopacity="0.0"
     inkscape:pagecheckerboard="0"
     inkscape:deskcolor="#d1d1d1"
     inkscape:document-units="pt"
     inkscape:zoom="0.44416562"
     inkscape:cx="918.57627"
     inkscape:cy="593.24718"
     inkscape:window-width="1512"
     inkscape:window-height="916"
     inkscape:window-x="0"
     inkscape:window-y="38"
     inkscape:window-maximized="1"
     inkscape:current-layer="g11" />
  <metadata
     id="metadata1">&#10;Created by potrace 1.15, written by Peter Selinger 2001-2017&#10;</metadata>
  <g
     transform="matrix(0.1,0,0,-0.1,-36.500003,783)"
     fill="#000000"
     stroke="none"
     id="g11">
    <path
       d="M 2740,5928 365,4025 l 711,-3 711,-2 1276,957 c 701,527 1771,1330 2376,1785 l 1101,826 602,-481 C 8327,6162 8989.4656,5649.5794 8990,5650 l 47,67 c -9,15 -887,758 -1797,1522 l -704,591 h -711 -710 z"
       id="path1"
       sodipodi:nodetypes="ccccccccccccccc" />
    <path
       d="m 7520,7056 c 36,-33 499,-415 517,-426 17,-11 39,1 202,120 l 182,133 47,-34 c 26,-18 340,-252 697,-519 358,-267 676,-505 708,-529 32,-23 57,-44 55,-46 -2,-2 -113,-16 -247,-30 l -244,-27 -102,-91 c -56,-51 -479,-438 -940,-862 l -839,-770 407,-3 407,-2 422,373 c 233,205 549,483 703,619 154,135 351,309 439,386 l 158,140 1142,-855 c 1259,-944 1190,-893 1121,-832 -78,69 -1046,910 -1103,958 -28,24 -49,47 -47,51 3,4 -73,71 -168,147 -94,77 -347,292 -560,477 -292,254 -393,336 -407,331 -19,-6 -32,4 -1110,884 l -515,420 h -470 c -395,1 -467,-1 -455,-13 z"
       id="path2" />
    <path
       d="m 9982.9613,4451.1158 v -155.1284 l 34.4707,-2.9507 c 43.424,-3.3723 220.254,-3.3723 251.143,0 l 23.279,2.9507 v 155.1284 155.5499 h -154.447 -154.4457 z"
       id="path3"
       style="stroke-width:0.434411" />
    <path
       d="m 10359.005,4451.1158 v -155.1284 l 23.726,-2.9507 c 30.441,-3.3723 207.272,-3.3723 250.695,0 l 34.47,2.9507 v 155.1284 155.5499 h -154.445 -154.446 z"
       id="path4"
       style="stroke-width:0.434411" />
    <path
       d="m 9982.9613,4086.0584 v -158.0791 h 154.4457 154.447 v 158.0791 158.0792 h -154.447 -154.4457 z"
       id="path7"
       style="stroke-width:0.434411" />
    <path
       d="m 10359.005,4088.1661 v -155.9714 h 154.446 154.445 v 155.9714 155.9715 h -154.445 -154.446 z"
       id="path8"
       style="stroke-width:0.434411" />
    <path
       d="m 11210,4806 c 0,-2 26,-23 58,-46 l 57,-42 -50,46 c -45,40 -65,54 -65,42 z"
       id="path9" />
    <path
       d="m 6439.5085,4273.5049 h -640.9357 c -110.646,0 -200.2781,93.0718 -200.2781,207.8778 v 665.2622 c 0,114.8472 89.6321,207.9217 200.2781,207.9217 h 640.9357 c 110.6062,0 200.2756,-93.0745 200.2756,-207.9217 v -665.2622 c 0,-114.806 -89.6694,-207.8778 -200.2756,-207.8778"
       style="display:inline;fill:#000000;fill-opacity:1;fill-rule:nonzero;stroke:none;stroke-width:40.1739"
       id="path291-3"
       inkscape:export-filename="/home/gruno/Projects/siamAlpha/iget/logo/master/iget-logo.png"
       inkscape:export-xdpi="96"
       inkscape:export-ydpi="96" />
    <path
       d="m 7382.55,4988.2076 h -534.1132 c -92.2065,0 -166.899,77.5584 -166.899,173.2323 v 554.3838 c 0,95.7076 74.6925,173.2685 166.899,173.2685 H 7382.55 c 92.1718,0 166.8965,-77.5609 166.8965,-173.2685 v -554.3838 c 0,-95.6739 -74.7247,-173.2323 -166.8965,-173.2323"
       style="display:inline;fill:#000000;fill-opacity:1;fill-rule:nonzero;stroke:none;stroke-width:33.4785"
       id="path291-3-0"
       inkscape:export-filename="/home/gruno/Projects/siamAlpha/iget/logo/master/iget-logo.png"
       inkscape:export-xdpi="96"
       inkscape:export-ydpi="96" />
    <path
       d="m 6419.6577,5644.793 h -396.7675 c -68.4957,0 -123.9822,57.6155 -123.9822,128.6848 v 411.8305 c 0,71.0952 55.4865,128.7133 123.9822,128.7133 h 396.7675 c 68.4709,0 123.9822,-57.6181 123.9822,-128.7133 v -411.8305 c 0,-71.0693 -55.5113,-128.6848 -123.9822,-128.6848"
       style="display:inline;fill:#000000;fill-opacity:1;fill-rule:nonzero;stroke:none;stroke-width:24.8695"
       id="path291-3-7"
       inkscape:export-filename="/home/gruno/Projects/siamAlpha/iget/logo/master/iget-logo.png"
       inkscape:export-xdpi="96"
       inkscape:export-ydpi="96" />
  </g>
</svg>
