<?xml version="1.0" encoding="UTF-8" standalone="no"?>
<!-- Created with Inkscape (http://www.inkscape.org/) -->

<svg
   width="83.153564mm"
   height="83.778885mm"
   viewBox="0 0 83.153564 83.778885"
   version="1.1"
   id="svg1"
   xml:space="preserve"
   xmlns:inkscape="http://www.inkscape.org/namespaces/inkscape"
   xmlns:sodipodi="http://sodipodi.sourceforge.net/DTD/sodipodi-0.dtd"
   xmlns="http://www.w3.org/2000/svg"
   xmlns:svg="http://www.w3.org/2000/svg"><sodipodi:namedview
     id="namedview1"
     pagecolor="#ffffff"
     bordercolor="#000000"
     borderopacity="0.25"
     inkscape:showpageshadow="2"
     inkscape:pageopacity="0.0"
     inkscape:pagecheckerboard="0"
     inkscape:deskcolor="#d1d1d1"
     inkscape:document-units="mm" /><defs
     id="defs1" /><g
     inkscape:label="Layer 1"
     inkscape:groupmode="layer"
     id="layer1"
     transform="translate(-63.505846,-105.98132)"><g
       inkscape:label="Layer 1"
       id="layer1-3"
       transform="translate(-9.4397324,45.38713)"><path
         d="M 108.79616,144.37307 H 81.480984 c -4.715471,0 -8.535405,-3.82131 -8.535405,-8.53498 v -27.31412 c 0,-4.71536 3.819934,-8.536783 8.535405,-8.536783 h 27.315176 c 4.71378,0 8.5353,3.821423 8.5353,8.536783 v 27.31412 c 0,4.71367 -3.82152,8.53498 -8.5353,8.53498"
         style="display:inline;fill:#004194;fill-opacity:1;fill-rule:nonzero;stroke:none;stroke-width:1.68049"
         id="path291-3"
         inkscape:export-filename="/home/gruno/Projects/siamAlpha/iget/logo/master/iget-logo.png"
         inkscape:export-xdpi="96"
         inkscape:export-ydpi="96" /><path
         d="m 148.98641,115.02904 h -22.76266 c -3.92964,0 -7.11284,-3.18437 -7.11284,-7.11252 V 85.154807 c 0,-3.92953 3.1832,-7.114 7.11284,-7.114 h 22.76266 c 3.92815,0 7.11273,3.18447 7.11273,7.114 v 22.761713 c 0,3.92815 -3.18458,7.11252 -7.11273,7.11252"
         style="display:inline;fill:#ff6600;fill-opacity:1;fill-rule:nonzero;stroke:none;stroke-width:1.40042"
         id="path291-3-0"
         inkscape:export-filename="/home/gruno/Projects/siamAlpha/iget/logo/master/iget-logo.png"
         inkscape:export-xdpi="96"
         inkscape:export-ydpi="96" /><path
         d="M 107.95018,88.071167 H 91.040856 c -2.919111,0 -5.283821,-2.36556 -5.283821,-5.2835 V 65.878862 c 0,-2.919005 2.36471,-5.284667 5.283821,-5.284667 h 16.909324 c 2.91806,0 5.28383,2.365662 5.28383,5.284667 v 16.908805 c 0,2.91794 -2.36577,5.2835 -5.28383,5.2835"
         style="display:inline;fill:#76e51e;fill-opacity:1;fill-rule:nonzero;stroke:none;stroke-width:1.0403"
         id="path291-3-7"
         inkscape:export-filename="/home/gruno/Projects/siamAlpha/iget/logo/master/iget-logo.png"
         inkscape:export-xdpi="96"
         inkscape:export-ydpi="96" /></g></g></svg>
